<svg width="100%" height="100%" viewBox="0 0 1000 962" fill="none" xmlns="http://www.w3.org/2000/svg">
<path opacity="0.010101" d="M231.257 91.1291L599.088 155.987L651.069 525.856L315.365 689.59L55.9064 420.914L231.257 91.1291Z" stroke="white"/>
<path opacity="0.020202" d="M242.496 88.7019L609.138 159.97L654.657 530.689L316.146 688.539L61.4163 415.376L242.496 88.7019Z" stroke="white"/>
<path opacity="0.030303" d="M253.69 86.4694L619.033 164.125L658.075 535.583L316.861 687.501L66.9369 409.933L253.69 86.4694Z" stroke="white"/>
<path opacity="0.040404" d="M264.837 84.4329L628.769 168.453L661.322 540.535L317.509 686.475L72.4673 404.588L264.837 84.4329Z" stroke="white"/>
<path opacity="0.050505" d="M275.937 82.5906L638.347 172.949L664.402 545.543L318.094 685.46L78.009 399.34L275.937 82.5906Z" stroke="white"/>
<path opacity="0.0606061" d="M286.979 80.9415L647.757 177.611L667.305 550.603L318.608 684.455L83.5534 394.188L286.979 80.9415Z" stroke="white"/>
<path opacity="0.0707071" d="M297.967 79.4846L657.003 182.436L670.039 555.712L319.058 683.458L89.1055 389.133L297.967 79.4846Z" stroke="white"/>
<path opacity="0.0808081" d="M308.894 78.219L666.079 187.421L672.597 560.868L319.441 682.469L94.6599 384.175L308.894 78.219Z" stroke="white"/>
<path opacity="0.0909091" d="M319.757 77.1436L674.981 192.563V566.066L319.757 681.485L100.216 379.314L319.757 77.1436Z" stroke="white"/>
<path opacity="0.10101" d="M330.553 76.2571L683.709 197.858L677.19 571.305L320.005 680.507L105.772 374.55L330.553 76.2571Z" stroke="white"/>
<path opacity="0.111111" d="M341.278 75.5585L692.258 203.304L679.223 576.581L320.187 679.532L111.325 369.883L341.278 75.5585Z" stroke="white"/>
<path opacity="0.121212" d="M351.93 75.0464L700.627 208.898L681.08 581.89L320.301 678.56L116.876 365.313L351.93 75.0464Z" stroke="white"/>
<path opacity="0.131313" d="M362.505 74.7196L708.813 214.637L682.759 587.231L320.348 677.589L122.421 360.84L362.505 74.7196Z" stroke="white"/>
<path opacity="0.141414" d="M373 74.5756L716.814 220.515L684.261 592.598L320.328 676.618L127.959 356.462L373 74.5756Z" stroke="white"/>
<path opacity="0.151515" d="M383.412 74.6151L724.626 226.533L685.584 597.991L320.241 675.646L133.488 352.182L383.412 74.6151Z" stroke="white"/>
<path opacity="0.161616" d="M393.737 74.8356L732.248 232.685L686.729 603.405L320.086 674.673L139.007 347.999L393.737 74.8356Z" stroke="white"/>
<path opacity="0.171717" d="M403.973 75.2355L739.677 238.969L687.695 608.838L319.865 673.696L144.514 343.911L403.973 75.2355Z" stroke="white"/>
<path opacity="0.181818" d="M414.116 75.8132L746.911 245.381L688.482 614.286L319.576 672.715L150.008 339.92L414.116 75.8132Z" stroke="white"/>
<path opacity="0.191919" d="M424.163 76.5672L753.948 251.917L689.09 619.746L319.22 671.728L155.486 336.025L424.163 76.5672Z" stroke="white"/>
<path opacity="0.20202" d="M434.111 77.4956L760.786 258.574L689.518 625.216L318.797 670.734L160.947 332.224L434.111 77.4956Z" stroke="white"/>
<path opacity="0.212121" d="M443.957 78.5968L767.422 265.349L689.767 630.691L318.308 669.732L166.389 328.519L443.957 78.5968Z" stroke="white"/>
<path opacity="0.222222" d="M453.699 79.8689L773.855 272.238L689.835 636.169L317.751 668.721L171.811 324.909L453.699 79.8689Z" stroke="white"/>
<path opacity="0.232323" d="M463.332 81.3101L780.083 279.237L689.724 641.646L317.129 667.7L177.211 321.393L463.332 81.3101Z" stroke="white"/>
<path opacity="0.242424" d="M472.855 82.9184L786.103 286.343L689.433 647.121L316.44 666.668L182.587 317.972L472.855 82.9184Z" stroke="white"/>
<path opacity="0.252525" d="M482.264 84.6911L791.914 293.552L688.963 652.587L315.685 665.622L187.938 314.643L482.264 84.6911Z" stroke="white"/>
<path opacity="0.262626" d="M491.557 86.6279L797.515 300.861L688.313 658.045L314.864 664.563L193.262 311.408L491.557 86.6279Z" stroke="white"/>
<path opacity="0.272727" d="M500.73 88.7258L802.902 308.266L687.483 663.49L313.978 663.489L198.558 308.266L500.73 88.7258Z" stroke="white"/>
<path opacity="0.282828" d="M509.781 90.9828L808.076 315.763L686.475 668.918L313.026 662.399L203.824 305.215L509.781 90.9828Z" stroke="white"/>
<path opacity="0.292929" d="M518.707 93.3967L813.033 323.349L685.287 674.328L312.01 661.292L209.057 302.257L518.707 93.3967Z" stroke="white"/>
<path opacity="0.30303" d="M527.505 95.9652L817.774 331.019L683.922 679.715L310.928 660.167L214.258 299.39L527.505 95.9652Z" stroke="white"/>
<path opacity="0.313131" d="M536.173 98.6862L822.295 338.77L682.378 685.077L309.783 659.022L219.423 296.613L536.173 98.6862Z" stroke="white"/>
<path opacity="0.323232" d="M544.708 101.557L826.596 346.598L680.657 690.41L308.573 657.857L224.552 293.926L544.708 101.557Z" stroke="white"/>
<path opacity="0.333333" d="M553.108 104.576L830.676 354.5L678.759 695.712L307.3 656.67L229.643 291.328L553.108 104.576Z" stroke="white"/>
<path opacity="0.343434" d="M561.369 107.74L834.534 362.47L676.684 700.979L305.963 655.46L234.694 288.818L561.369 107.74Z" stroke="white"/>
<path opacity="0.353535" d="M569.49 111.044L838.167 370.502L674.434 706.205L304.564 654.223L239.704 286.393L569.49 111.044Z" stroke="white"/>
<path opacity="0.363636" d="M577.467 114.494L841.575 378.602L672.008 711.396L303.102 652.967L244.672 284.061L577.467 114.494Z" stroke="white"/>
<path opacity="0.373737" d="M585.299 118.079L844.758 386.756L669.408 716.54L301.578 651.681L249.595 281.812L585.299 118.079Z" stroke="white"/>
<path opacity="0.383838" d="M592.983 121.805L847.713 394.969L666.635 721.643L299.992 650.374L254.473 279.654L592.983 121.805Z" stroke="white"/>
<path opacity="0.393939" d="M600.517 125.656L850.441 403.224L663.689 726.688L298.346 649.031L259.303 277.573L600.517 125.656Z" stroke="white"/>
<path opacity="0.40404" d="M607.898 129.638L852.939 411.526L660.571 731.681L296.639 647.66L264.085 275.577L607.898 129.638Z" stroke="white"/>
<path opacity="0.414141" d="M615.124 133.749L855.209 419.87L657.282 736.619L294.872 646.26L268.816 273.665L615.124 133.749Z" stroke="white"/>
<path opacity="0.424242" d="M622.193 137.986L857.248 428.254L653.823 741.5L293.045 644.83L273.497 271.837L622.193 137.986Z" stroke="white"/>
<path opacity="0.434343" d="M629.103 142.342L859.056 436.668L650.196 746.317L291.16 643.364L278.124 270.088L629.103 142.342Z" stroke="white"/>
<path opacity="0.444444" d="M635.852 146.823L860.633 445.117L646.4 751.073L289.216 641.871L282.696 268.423L635.852 146.823Z" stroke="white"/>
<path opacity="0.454545" d="M642.437 151.414L861.979 453.585L642.439 755.756L287.214 640.337L287.213 266.832L642.437 151.414Z" stroke="white"/>
<path opacity="0.464646" d="M648.857 156.121L863.092 462.078L638.311 760.372L285.156 638.77L291.673 265.322L648.857 156.121Z" stroke="white"/>
<path opacity="0.474747" d="M655.11 160.944L863.972 470.593L634.02 764.918L283.04 637.172L296.075 263.895L655.11 160.944Z" stroke="white"/>
<path opacity="0.484848" d="M661.194 165.865L864.62 479.112L629.566 769.379L280.869 635.526L300.416 262.534L661.194 165.865Z" stroke="white"/>
<path opacity="0.494949" d="M667.106 170.9L865.034 487.65L624.951 773.77L278.643 633.852L304.696 261.258L667.106 170.9Z" stroke="white"/>
<path opacity="0.50505" d="M672.846 176.028L865.216 496.184L620.175 778.071L276.362 632.13L308.914 260.047L672.846 176.028Z" stroke="white"/>
<path opacity="0.515152" d="M678.411 181.259L865.164 504.723L615.241 782.291L274.027 630.372L313.068 258.914L678.411 181.259Z" stroke="white"/>
<path opacity="0.525253" d="M683.799 186.585L864.879 513.259L610.15 786.423L271.639 628.572L317.157 257.852L683.799 186.585Z" stroke="white"/>
<path opacity="0.535354" d="M689.01 192.004L864.361 521.79L604.903 790.466L269.199 626.732L321.18 256.862L689.01 192.004Z" stroke="white"/>
<path opacity="0.545455" d="M694.041 197.512L863.61 530.308L599.502 794.415L266.707 624.847L325.135 255.941L694.041 197.512Z" stroke="white"/>
<path opacity="0.555556" d="M698.891 203.105L862.626 538.809L593.95 798.266L264.164 622.916L329.022 255.086L698.891 203.105Z" stroke="white"/>
<path opacity="0.565657" d="M703.559 208.782L861.41 547.293L588.246 802.022L261.571 620.942L332.839 254.3L703.559 208.782Z" stroke="white"/>
<path opacity="0.575758" d="M708.043 214.542L859.961 555.756L582.394 805.679L258.929 618.926L336.584 253.583L708.043 214.542Z" stroke="white"/>
<path opacity="0.585859" d="M712.341 220.372L858.281 564.185L576.394 809.226L256.238 616.856L340.258 252.925L712.341 220.372Z" stroke="white"/>
<path opacity="0.59596" d="M716.452 226.282L856.37 572.589L570.25 812.673L253.5 614.745L343.858 252.335L716.452 226.282Z" stroke="white"/>
<path opacity="0.606061" d="M720.376 232.26L854.229 580.957L563.962 816.011L250.714 612.585L347.384 251.807L720.376 232.26Z" stroke="white"/>
<path opacity="0.616162" d="M724.111 238.303L851.857 589.283L557.532 819.235L247.883 610.373L350.834 251.338L724.111 238.303Z" stroke="white"/>
<path opacity="0.626263" d="M727.655 244.41L849.257 597.566L550.963 822.346L245.006 608.112L354.208 250.928L727.655 244.41Z" stroke="white"/>
<path opacity="0.636364" d="M731.008 250.578L846.428 605.802L544.257 825.342L242.085 605.801L357.504 250.577L731.008 250.578Z" stroke="white"/>
<path opacity="0.646465" d="M734.169 256.801L843.372 613.985L537.415 828.218L239.121 603.437L360.721 250.281L734.169 256.801Z" stroke="white"/>
<path opacity="0.656566" d="M737.136 263.081L840.089 622.117L530.44 830.978L236.114 601.025L363.859 250.045L737.136 263.081Z" stroke="white"/>
<path opacity="0.666667" d="M739.909 269.407L836.58 630.186L523.333 833.61L233.066 598.556L366.917 249.859L739.909 269.407Z" stroke="white"/>
<path opacity="0.676768" d="M742.488 275.783L832.847 638.193L516.098 836.12L229.977 596.035L369.893 249.727L742.488 275.783Z" stroke="white"/>
<path opacity="0.686869" d="M744.87 282.205L828.891 646.137L508.736 838.506L226.848 593.464L372.787 249.651L744.87 282.205Z" stroke="white"/>
<path opacity="0.69697" d="M747.056 288.661L824.712 654.004L501.248 840.756L223.68 590.832L375.598 249.618L747.056 288.661Z" stroke="white"/>
<path opacity="0.707071" d="M749.044 295.155L820.313 661.797L493.639 842.876L220.475 588.146L378.324 249.635L749.044 295.155Z" stroke="white"/>
<path opacity="0.717172" d="M750.835 301.683L815.694 669.514L485.91 844.864L217.233 585.405L380.966 249.701L750.835 301.683Z" stroke="white"/>
<path opacity="0.727273" d="M752.427 308.239L810.857 677.145L478.063 846.712L213.955 582.604L383.522 249.809L752.427 308.239Z" stroke="white"/>
<path opacity="0.737374" d="M753.821 314.825L805.803 684.695L470.1 848.428L210.642 579.751L385.991 249.966L753.821 314.825Z" stroke="white"/>
<path opacity="0.747475" d="M755.015 321.428L800.535 692.149L462.025 849.998L207.296 576.834L388.373 250.159L755.015 321.428Z" stroke="white"/>
<path opacity="0.757576" d="M756.01 328.054L795.052 699.512L453.839 851.43L203.916 573.861L390.668 250.397L756.01 328.054Z" stroke="white"/>
<path opacity="0.767677" d="M756.804 334.694L789.358 706.778L445.546 852.717L200.505 570.829L392.873 250.673L756.804 334.694Z" stroke="white"/>
<path opacity="0.777778" d="M757.399 341.348L783.454 713.943L437.147 853.86L197.063 567.738L394.989 250.988L757.399 341.348Z" stroke="white"/>
<path opacity="0.787879" d="M757.793 348.007L777.341 721L428.645 854.852L193.591 564.584L397.016 251.336L757.793 348.007Z" stroke="white"/>
<path opacity="0.79798" d="M757.987 354.673L771.022 727.951L420.043 855.697L190.091 561.37L398.951 251.721L757.987 354.673Z" stroke="white"/>
<path opacity="0.808081" d="M757.98 361.339L764.499 734.788L411.344 856.389L186.563 558.094L400.796 252.137L757.98 361.339Z" stroke="white"/>
<path opacity="0.818182" d="M757.772 368.009L757.773 741.514L402.549 856.933L183.009 554.76L402.549 252.589L757.772 368.009Z" stroke="white"/>
<path opacity="0.828283" d="M757.364 374.667L750.846 748.116L393.662 857.318L179.429 551.36L404.209 253.065L757.364 374.667Z" stroke="white"/>
<path opacity="0.838384" d="M756.756 381.316L743.721 754.594L384.686 857.546L175.825 547.896L405.777 253.57L756.756 381.316Z" stroke="white"/>
<path opacity="0.848485" d="M755.947 387.959L736.4 760.952L375.623 857.622L172.198 544.374L407.251 254.106L755.947 387.959Z" stroke="white"/>
<path opacity="0.858586" d="M754.939 394.583L728.885 767.178L366.476 857.537L168.548 540.786L408.632 254.665L754.939 394.583Z" stroke="white"/>
<path opacity="0.868687" d="M753.731 401.188L721.178 773.272L357.247 857.292L164.878 537.135L409.918 255.247L753.731 401.188Z" stroke="white"/>
<path opacity="0.878788" d="M752.323 407.77L713.282 779.229L347.94 856.885L161.188 533.42L411.11 255.852L752.323 407.77Z" stroke="white"/>
<path opacity="0.888889" d="M750.717 414.322L705.199 785.043L338.557 856.311L157.479 529.636L412.207 256.471L750.717 414.322Z" stroke="white"/>
<path opacity="0.89899" d="M748.913 420.852L696.931 790.722L329.102 855.581L153.752 525.795L413.209 257.118L748.913 420.852Z" stroke="white"/>
<path opacity="0.909091" d="M746.91 427.341L688.482 796.248L319.576 854.677L150.009 521.881L414.116 257.773L746.91 427.341Z" stroke="white"/>
<path opacity="0.919192" d="M744.711 433.796L679.853 801.627L309.984 853.608L146.25 517.904L414.926 258.446L744.711 433.796Z" stroke="white"/>
<path opacity="0.929293" d="M742.315 440.213L671.047 806.856L300.327 852.375L142.478 513.864L415.641 259.134L742.315 440.213Z" stroke="white"/>
<path opacity="0.939394" d="M739.723 446.585L662.067 811.928L290.61 850.97L138.692 509.756L416.259 259.832L739.723 446.585Z" stroke="white"/>
<path opacity="0.949495" d="M736.936 452.913L652.916 816.845L280.834 849.399L134.894 505.585L416.781 260.544L736.936 452.913Z" stroke="white"/>
<path opacity="0.959596" d="M733.955 459.185L643.597 821.595L271.003 847.65L131.086 501.342L417.206 261.257L733.955 459.185Z" stroke="white"/>
<path opacity="0.969697" d="M730.781 465.406L634.111 826.184L261.119 845.732L127.268 497.035L417.534 261.98L730.781 465.406Z" stroke="white"/>
<path opacity="0.979798" d="M727.415 471.567L624.463 830.603L251.187 843.638L123.441 492.658L417.766 262.705L727.415 471.567Z" stroke="white"/>
<path opacity="0.989899" d="M723.857 477.672L614.655 834.857L241.208 841.376L119.607 488.219L417.901 263.438L723.857 477.672Z" stroke="white"/>
<path d="M720.109 483.711L604.69 838.936H231.187L115.768 483.711L417.938 264.17L720.109 483.711Z" stroke="white"/>
</svg>
