<svg width="100%" height="100%" viewBox="0 0 971 971" fill="none" xmlns="http://www.w3.org/2000/svg">
<rect opacity="0.010101" x="553.157" y="968.345" width="689" height="689" rx="4.5" transform="rotate(-143 553.157 968.345)" stroke="white"/>
<rect opacity="0.020202" x="544.261" y="966.445" width="684" height="684" rx="4.5" transform="rotate(-142 544.261 966.445)" stroke="white"/>
<rect opacity="0.030303" x="535.468" y="964.385" width="679" height="679" rx="4.5" transform="rotate(-141 535.468 964.385)" stroke="white"/>
<rect opacity="0.040404" x="526.784" y="962.166" width="674" height="674" rx="4.5" transform="rotate(-140 526.784 962.166)" stroke="white"/>
<rect opacity="0.050505" x="518.209" y="959.791" width="669" height="669" rx="4.5" transform="rotate(-139 518.209 959.791)" stroke="white"/>
<rect opacity="0.0606061" x="509.748" y="957.265" width="664" height="664" rx="4.5" transform="rotate(-138 509.748 957.265)" stroke="white"/>
<rect opacity="0.0707071" x="501.402" y="954.588" width="659" height="659" rx="4.5" transform="rotate(-137 501.402 954.588)" stroke="white"/>
<rect opacity="0.0808081" x="493.175" y="951.767" width="654" height="654" rx="4.5" transform="rotate(-136 493.175 951.767)" stroke="white"/>
<rect opacity="0.0909091" x="485.068" y="948.802" width="649" height="649" rx="4.5" transform="rotate(-135 485.068 948.802)" stroke="white"/>
<rect opacity="0.10101" x="477.086" y="945.696" width="644" height="644" rx="4.5" transform="rotate(-134 477.086 945.696)" stroke="white"/>
<rect opacity="0.111111" x="469.229" y="942.455" width="639" height="639" rx="4.5" transform="rotate(-133 469.229 942.455)" stroke="white"/>
<rect opacity="0.121212" x="461.5" y="939.08" width="634" height="634" rx="4.5" transform="rotate(-132 461.5 939.08)" stroke="white"/>
<rect opacity="0.131313" x="453.901" y="935.576" width="629" height="629" rx="4.5" transform="rotate(-131 453.901 935.576)" stroke="white"/>
<rect opacity="0.141414" x="446.435" y="931.944" width="624" height="624" rx="4.5" transform="rotate(-130 446.435 931.944)" stroke="white"/>
<rect opacity="0.151515" x="439.103" y="928.19" width="619" height="619" rx="4.5" transform="rotate(-129 439.103 928.19)" stroke="white"/>
<rect opacity="0.161616" x="431.908" y="924.317" width="614" height="614" rx="4.5" transform="rotate(-128 431.908 924.317)" stroke="white"/>
<rect opacity="0.171717" x="424.852" y="920.326" width="609" height="609" rx="4.5" transform="rotate(-127 424.852 920.326)" stroke="white"/>
<rect opacity="0.181818" x="417.937" y="916.222" width="604" height="604" rx="4.5" transform="rotate(-126 417.937 916.222)" stroke="white"/>
<rect opacity="0.191919" x="411.164" y="912.012" width="599" height="599" rx="4.5" transform="rotate(-125 411.164 912.012)" stroke="white"/>
<rect opacity="0.20202" x="404.534" y="907.694" width="594" height="594" rx="4.5" transform="rotate(-124 404.534 907.694)" stroke="white"/>
<rect opacity="0.212121" x="398.05" y="903.273" width="589" height="589" rx="4.5" transform="rotate(-123 398.05 903.273)" stroke="white"/>
<rect opacity="0.222222" x="391.713" y="898.755" width="584" height="584" rx="4.5" transform="rotate(-122 391.713 898.755)" stroke="white"/>
<rect opacity="0.232323" x="385.525" y="894.142" width="579" height="579" rx="4.5" transform="rotate(-121 385.525 894.142)" stroke="white"/>
<rect opacity="0.242424" x="379.487" y="889.438" width="574" height="574" rx="4.5" transform="rotate(-120 379.487 889.438)" stroke="white"/>
<rect opacity="0.252525" x="373.599" y="884.646" width="569" height="569" rx="4.5" transform="rotate(-119 373.599 884.646)" stroke="white"/>
<rect opacity="0.262626" x="367.864" y="879.771" width="564" height="564" rx="4.5" transform="rotate(-118 367.864 879.771)" stroke="white"/>
<rect opacity="0.272727" x="362.283" y="874.816" width="559" height="559" rx="4.5" transform="rotate(-117 362.283 874.816)" stroke="white"/>
<rect opacity="0.282828" x="356.856" y="869.784" width="554" height="554" rx="4.5" transform="rotate(-116 356.856 869.784)" stroke="white"/>
<rect opacity="0.292929" x="351.585" y="864.679" width="549" height="549" rx="4.5" transform="rotate(-115 351.585 864.679)" stroke="white"/>
<rect opacity="0.30303" x="346.47" y="859.506" width="544" height="544" rx="4.5" transform="rotate(-114 346.47 859.506)" stroke="white"/>
<rect opacity="0.313131" x="341.513" y="854.267" width="539" height="539" rx="4.5" transform="rotate(-113 341.513 854.267)" stroke="white"/>
<rect opacity="0.323232" x="336.713" y="848.967" width="534" height="534" rx="4.5" transform="rotate(-112 336.713 848.967)" stroke="white"/>
<rect opacity="0.333333" x="332.072" y="843.609" width="529" height="529" rx="4.5" transform="rotate(-111 332.072 843.609)" stroke="white"/>
<rect opacity="0.343434" x="327.59" y="838.198" width="524" height="524" rx="4.5" transform="rotate(-110 327.59 838.198)" stroke="white"/>
<rect opacity="0.353535" x="323.268" y="832.736" width="519" height="519" rx="4.5" transform="rotate(-109 323.268 832.736)" stroke="white"/>
<rect opacity="0.363636" x="319.105" y="827.227" width="514" height="514" rx="4.5" transform="rotate(-108 319.105 827.227)" stroke="white"/>
<rect opacity="0.373737" x="315.103" y="821.676" width="509" height="509" rx="4.5" transform="rotate(-107 315.103 821.676)" stroke="white"/>
<rect opacity="0.383838" x="311.261" y="816.088" width="504" height="504" rx="4.5" transform="rotate(-106 311.261 816.088)" stroke="white"/>
<rect opacity="0.393939" x="307.58" y="810.463" width="499" height="499" rx="4.5" transform="rotate(-105 307.58 810.463)" stroke="white"/>
<rect opacity="0.40404" x="304.059" y="804.807" width="494" height="494" rx="4.5" transform="rotate(-104 304.059 804.807)" stroke="white"/>
<rect opacity="0.414141" x="300.699" y="799.123" width="489" height="489" rx="4.5" transform="rotate(-103 300.699 799.123)" stroke="white"/>
<rect opacity="0.424242" x="297.499" y="793.415" width="484" height="484" rx="4.5" transform="rotate(-102 297.499 793.415)" stroke="white"/>
<rect opacity="0.434343" x="294.459" y="787.687" width="479" height="479" rx="4.5" transform="rotate(-101 294.459 787.687)" stroke="white"/>
<rect opacity="0.444444" x="291.58" y="781.943" width="474" height="474" rx="4.5" transform="rotate(-100 291.58 781.943)" stroke="white"/>
<rect opacity="0.454545" x="288.86" y="776.186" width="469" height="469" rx="4.5" transform="rotate(-99 288.86 776.186)" stroke="white"/>
<rect opacity="0.464646" x="286.3" y="770.419" width="464" height="464" rx="4.5" transform="rotate(-98 286.3 770.419)" stroke="white"/>
<rect opacity="0.474747" x="283.898" y="764.648" width="459" height="459" rx="4.5" transform="rotate(-97 283.898 764.648)" stroke="white"/>
<rect opacity="0.484848" x="281.654" y="758.873" width="454" height="454" rx="4.5" transform="rotate(-96 281.654 758.873)" stroke="white"/>
<rect opacity="0.494949" x="279.568" y="753.101" width="449" height="449" rx="4.5" transform="rotate(-95 279.568 753.101)" stroke="white"/>
<rect opacity="0.50505" x="277.639" y="747.334" width="444" height="444" rx="4.5" transform="rotate(-94 277.639 747.334)" stroke="white"/>
<rect opacity="0.515152" x="275.865" y="741.576" width="439" height="439" rx="4.5" transform="rotate(-93 275.865 741.576)" stroke="white"/>
<rect opacity="0.525253" x="274.246" y="735.83" width="434" height="434" rx="4.5" transform="rotate(-92 274.246 735.83)" stroke="white"/>
<rect opacity="0.535354" x="272.781" y="730.1" width="429" height="429" rx="4.5" transform="rotate(-91 272.781 730.1)" stroke="white"/>
<rect opacity="0.545455" x="271.47" y="724.389" width="424" height="424" rx="4.5" transform="rotate(-90 271.47 724.389)" stroke="white"/>
<rect opacity="0.555556" x="270.309" y="718.7" width="419" height="419" rx="4.5" transform="rotate(-89 270.309 718.7)" stroke="white"/>
<rect opacity="0.565657" x="269.3" y="713.038" width="414" height="414" rx="4.5" transform="rotate(-88 269.3 713.038)" stroke="white"/>
<rect opacity="0.575758" x="268.441" y="707.406" width="409" height="409" rx="4.5" transform="rotate(-87 268.441 707.406)" stroke="white"/>
<rect opacity="0.585859" x="267.729" y="701.806" width="404" height="404" rx="4.5" transform="rotate(-86 267.729 701.806)" stroke="white"/>
<rect opacity="0.59596" x="267.164" y="696.242" width="399" height="399" rx="4.5" transform="rotate(-85 267.164 696.242)" stroke="white"/>
<rect opacity="0.606061" x="266.743" y="690.718" width="394" height="394" rx="4.5" transform="rotate(-84 266.743 690.718)" stroke="white"/>
<rect opacity="0.616162" x="266.467" y="685.236" width="389" height="389" rx="4.5" transform="rotate(-83 266.467 685.236)" stroke="white"/>
<rect opacity="0.626263" x="266.332" y="679.799" width="384" height="384" rx="4.5" transform="rotate(-82 266.332 679.799)" stroke="white"/>
<rect opacity="0.636364" x="266.339" y="674.412" width="379" height="379" rx="4.5" transform="rotate(-81 266.339 674.412)" stroke="white"/>
<rect opacity="0.646465" x="266.483" y="669.076" width="374" height="374" rx="4.5" transform="rotate(-80 266.483 669.076)" stroke="white"/>
<rect opacity="0.656566" x="266.764" y="663.795" width="369" height="369" rx="4.5" transform="rotate(-79 266.764 663.795)" stroke="white"/>
<rect opacity="0.666667" x="267.18" y="658.572" width="364" height="364" rx="4.5" transform="rotate(-78 267.18 658.572)" stroke="white"/>
<rect opacity="0.676768" x="267.73" y="653.409" width="359" height="359" rx="4.5" transform="rotate(-77 267.73 653.409)" stroke="white"/>
<rect opacity="0.686869" x="268.41" y="648.311" width="354" height="354" rx="4.5" transform="rotate(-76 268.41 648.311)" stroke="white"/>
<rect opacity="0.69697" x="269.219" y="643.279" width="349" height="349" rx="4.5" transform="rotate(-75 269.219 643.279)" stroke="white"/>
<rect opacity="0.707071" x="270.155" y="638.316" width="344" height="344" rx="4.5" transform="rotate(-74 270.155 638.316)" stroke="white"/>
<rect opacity="0.717172" x="271.215" y="633.426" width="339" height="339" rx="4.5" transform="rotate(-73 271.215 633.426)" stroke="white"/>
<rect opacity="0.727273" x="272.398" y="628.61" width="334" height="334" rx="4.5" transform="rotate(-72 272.398 628.61)" stroke="white"/>
<rect opacity="0.737374" x="273.7" y="623.871" width="329" height="329" rx="4.5" transform="rotate(-71 273.7 623.871)" stroke="white"/>
<rect opacity="0.747475" x="275.121" y="619.212" width="324" height="324" rx="4.5" transform="rotate(-70 275.121 619.212)" stroke="white"/>
<rect opacity="0.757576" x="276.658" y="614.635" width="319" height="319" rx="4.5" transform="rotate(-69 276.658 614.635)" stroke="white"/>
<rect opacity="0.767677" x="278.307" y="610.144" width="314" height="314" rx="4.5" transform="rotate(-68 278.307 610.144)" stroke="white"/>
<rect opacity="0.777778" x="280.067" y="605.739" width="309" height="309" rx="4.5" transform="rotate(-67 280.067 605.739)" stroke="white"/>
<rect opacity="0.787879" x="281.934" y="601.424" width="304" height="304" rx="4.5" transform="rotate(-66 281.934 601.424)" stroke="white"/>
<rect opacity="0.79798" x="283.907" y="597.201" width="299" height="299" rx="4.5" transform="rotate(-65 283.907 597.201)" stroke="white"/>
<rect opacity="0.808081" x="285.982" y="593.072" width="294" height="294" rx="4.5" transform="rotate(-64 285.982 593.072)" stroke="white"/>
<rect opacity="0.818182" x="288.158" y="589.037" width="289" height="289" rx="4.5" transform="rotate(-63 288.158 589.037)" stroke="white"/>
<rect opacity="0.828283" x="290.431" y="585.103" width="284" height="284" rx="4.5" transform="rotate(-62 290.431 585.103)" stroke="white"/>
<rect opacity="0.838384" x="292.799" y="581.268" width="279" height="279" rx="4.5" transform="rotate(-61 292.799 581.268)" stroke="white"/>
<rect opacity="0.848485" x="295.258" y="577.535" width="274" height="274" rx="4.5" transform="rotate(-60 295.258 577.535)" stroke="white"/>
<rect opacity="0.858586" x="297.806" y="573.905" width="269" height="269" rx="4.5" transform="rotate(-59 297.806 573.905)" stroke="white"/>
<rect opacity="0.868687" x="300.441" y="570.382" width="264" height="264" rx="4.5" transform="rotate(-58 300.441 570.382)" stroke="white"/>
<rect opacity="0.878788" x="303.158" y="566.966" width="259" height="259" rx="4.5" transform="rotate(-57 303.158 566.966)" stroke="white"/>
<rect opacity="0.888889" x="305.956" y="563.659" width="254" height="254" rx="4.5" transform="rotate(-56 305.956 563.659)" stroke="white"/>
<rect opacity="0.89899" x="308.831" y="560.463" width="249" height="249" rx="4.5" transform="rotate(-55 308.831 560.463)" stroke="white"/>
<rect opacity="0.909091" x="311.78" y="557.38" width="244" height="244" rx="4.5" transform="rotate(-54 311.78 557.38)" stroke="white"/>
<rect opacity="0.919192" x="314.801" y="554.409" width="239" height="239" rx="4.5" transform="rotate(-53 314.801 554.409)" stroke="white"/>
<rect opacity="0.929293" x="317.889" y="551.553" width="234" height="234" rx="4.5" transform="rotate(-52 317.889 551.553)" stroke="white"/>
<rect opacity="0.939394" x="321.043" y="548.815" width="229" height="229" rx="4.5" transform="rotate(-51 321.043 548.815)" stroke="white"/>
<rect opacity="0.949495" x="324.259" y="546.193" width="224" height="224" rx="4.5" transform="rotate(-50 324.259 546.193)" stroke="white"/>
<rect opacity="0.959596" x="327.534" y="543.691" width="219" height="219" rx="4.5" transform="rotate(-49 327.534 543.691)" stroke="white"/>
<rect opacity="0.969697" x="330.864" y="541.309" width="214" height="214" rx="4.5" transform="rotate(-48 330.864 541.309)" stroke="white"/>
<rect opacity="0.979798" x="334.247" y="539.046" width="209" height="209" rx="4.5" transform="rotate(-47 334.247 539.046)" stroke="white"/>
<rect opacity="0.989899" x="337.678" y="536.907" width="204" height="204" rx="4.5" transform="rotate(-46 337.678 536.907)" stroke="white"/>
<rect x="341.156" y="534.889" width="199" height="199" rx="4.5" transform="rotate(-45 341.156 534.889)" stroke="white"/>
</svg>
